<?xml version="1.0" encoding="utf-8"?>
<!-- Generator: Adobe Illustrator 16.0.0, SVG Export Plug-In . SVG Version: 6.00 Build 0)  -->
<!DOCTYPE svg PUBLIC "-//W3C//DTD SVG 1.1//EN" "http://www.w3.org/Graphics/SVG/1.1/DTD/svg11.dtd">
<svg version="1.1" id="Layer_1" xmlns="http://www.w3.org/2000/svg" xmlns:xlink="http://www.w3.org/1999/xlink" x="0px" y="0px"
	 width="545px" height="494px" viewBox="204.5 46.5 545 494" enable-background="new 204.5 46.5 545 494" xml:space="preserve">
<g>
	<path fill="#9D99B1" d="M470.992,487.742c-1.689,0-3.369-0.457-4.863-1.362l-129.733-79.277c-2.772-1.699-4.471-4.714-4.471-7.971
		V252.085c0-5.152,4.181-9.333,9.333-9.333c5.152,0,9.333,4.181,9.333,9.333v141.811l120.577,73.687l134.633-76.3V252.085
		c0-5.152,4.172-9.333,9.334-9.333c5.16,0,9.332,4.181,9.332,9.333v144.639c0,3.359-1.801,6.459-4.73,8.12l-144.144,81.685
		C474.165,487.341,472.578,487.742,470.992,487.742z"/>
	<path fill="#9D99B1" d="M473.4,487.742c-5.152,0-9.334-4.172-9.334-9.333V230.842c0-5.152,4.182-9.333,9.334-9.333
		c5.151,0,9.333,4.181,9.333,9.333v247.557C482.733,483.561,478.552,487.742,473.4,487.742z"/>
	<path fill="#9D99B1" d="M403.092,299.189c-1.68,0-3.359-0.457-4.862-1.371l-139.562-85.232c-2.753-1.689-4.452-4.676-4.471-7.905
		c-0.019-3.229,1.633-6.244,4.368-7.961l76.608-48.16c2.847-1.792,6.44-1.914,9.389-0.317l138.058,74.387
		c2.773,1.493,4.611,4.274,4.873,7.411c0.27,3.136-1.055,6.197-3.529,8.139l-75.104,59.015
		C407.18,298.518,405.136,299.189,403.092,299.189z M281.245,204.503l121.175,74.013l58.81-46.209l-120.736-65.054L281.245,204.503z
		"/>
	<path fill="#9D99B1" d="M553.302,299.189c-2.043,0-4.088-0.672-5.768-1.996l-75.096-59.015c-2.474-1.941-3.799-4.994-3.537-8.12
		c0.261-3.126,2.081-5.917,4.844-7.411l136.863-74.387c2.939-1.605,6.516-1.512,9.371,0.261l77.803,48.16
		c2.754,1.708,4.434,4.723,4.424,7.961c-0.01,3.248-1.707,6.244-4.471,7.942l-139.561,85.232
		C556.661,298.742,554.981,299.189,553.302,299.189z M495.118,232.27l58.855,46.247l121.082-73.948l-60.285-37.324L495.118,232.27z"
		/>
	<path fill="#9D99B1" d="M615.062,165.798c-1.047,0-2.119-0.178-3.156-0.551l-138.412-49.7l-130.032,49.625
		c-4.788,1.848-10.211-0.569-12.049-5.395c-1.83-4.807,0.579-10.202,5.404-12.04l133.261-50.867
		c2.081-0.793,4.387-0.821,6.478-0.065l141.661,50.867c4.854,1.745,7.373,7.093,5.637,11.938
		C622.481,163.418,618.888,165.789,615.062,165.798z"/>
</g>
</svg>
