<?xml version="1.0" encoding="utf-8"?>
<!-- Generator: Adobe Illustrator 16.0.0, SVG Export Plug-In . SVG Version: 6.00 Build 0)  -->
<!DOCTYPE svg PUBLIC "-//W3C//DTD SVG 1.1//EN" "http://www.w3.org/Graphics/SVG/1.1/DTD/svg11.dtd">
<svg version="1.1" id="Layer_1" xmlns="http://www.w3.org/2000/svg" xmlns:xlink="http://www.w3.org/1999/xlink" x="0px" y="0px"
	 width="580px" height="491px" viewBox="187.5 14.5 580 491" enable-background="new 187.5 14.5 580 491" xml:space="preserve">
<g>
	<polygon fill="#A199CF" points="688.423,300.935 597.749,219.333 362.25,219.333 271.577,300.935 259.089,287.065 355.083,200.667 
		604.917,200.667 700.91,287.065 	"/>
</g>
<g>
	<path fill="#A199CF" d="M676,448H284c-15.442,0-28-12.558-28-28V284.666h149.333V294c0,23.16,18.84,42,42,42h65.334
		c23.16,0,42-18.84,42-42v-9.334H704V420C704,435.442,691.442,448,676,448z M274.667,303.334V420c0,5.147,4.186,9.333,9.333,9.333
		h392c5.147,0,9.333-4.186,9.333-9.333V303.334H572.619c-4.503,29.04-29.675,51.333-59.952,51.333h-65.334
		c-30.277,0-55.449-22.293-59.952-51.333H274.667z"/>
</g>
<g>
	
		<rect x="367.91" y="95.674" transform="matrix(-0.5369 -0.8437 0.8437 -0.5369 523.5965 497.4427)" fill="#A199CF" width="60.847" height="18.667"/>
</g>
<g>
	
		<rect x="557.006" y="74.57" transform="matrix(-0.8437 -0.5368 0.5368 -0.8437 987.7978 497.5931)" fill="#A199CF" width="18.667" height="60.843"/>
</g>
<g>
	<rect x="470.667" y="65.333" fill="#A199CF" width="18.666" height="60.667"/>
</g>
</svg>
