<?xml version="1.0" encoding="utf-8"?>
<!-- Generator: Adobe Illustrator 16.0.0, SVG Export Plug-In . SVG Version: 6.00 Build 0)  -->
<!DOCTYPE svg PUBLIC "-//W3C//DTD SVG 1.1//EN" "http://www.w3.org/Graphics/SVG/1.1/DTD/svg11.dtd">
<svg version="1.1" id="Layer_1" xmlns="http://www.w3.org/2000/svg" xmlns:xlink="http://www.w3.org/1999/xlink" x="0px" y="0px"
	 width="24px" height="24px" viewBox="0 0 24 24" enable-background="new 0 0 24 24" xml:space="preserve">
<path fill="#7C7B99" d="M8.828,11.062c-0.69,0-1.25,0.56-1.25,1.25c0,0.689,0.56,1.25,1.25,1.25s1.25-0.561,1.25-1.25
	C10.078,11.623,9.518,11.062,8.828,11.062z M14.828,11.062c-0.689,0-1.25,0.56-1.25,1.25c0,0.689,0.561,1.25,1.25,1.25
	s1.25-0.561,1.25-1.25C16.078,11.623,15.518,11.062,14.828,11.062z M11.828,1.312c-5.52,0-10,4.48-10,10c0,5.52,4.48,10,10,10
	c5.52,0,10-4.48,10-10C21.828,5.792,17.348,1.312,11.828,1.312z M11.828,19.312c-4.41,0-8-3.59-8-8c0-0.29,0.02-0.58,0.05-0.86
	c2.36-1.05,4.23-2.98,5.21-5.37c1.81,2.56,4.79,4.23,8.16,4.23c0.78,0,1.53-0.09,2.25-0.26c0.21,0.71,0.33,1.47,0.33,2.26
	C19.828,15.723,16.238,19.312,11.828,19.312z"/>
<path fill="none" d="M0,0h24v24H0V0z"/>
<g>
	<path fill="#7C7B99" d="M15.211,15.684c0,0-0.423,0.572-1.057,0.977c-0.317,0.225-0.688,0.392-1.084,0.531
		c-0.396,0.125-0.819,0.188-1.242,0.192c-0.423-0.005-0.846-0.071-1.242-0.196c-0.198-0.055-0.39-0.156-0.571-0.239
		c-0.182-0.072-0.354-0.187-0.512-0.293c-0.634-0.402-1.057-0.972-1.057-0.972l-0.1-0.134v-0.059l0.1-0.007
		c0,0,0.423-0.032,1.057-0.054c0.634-0.013,1.48-0.029,2.326-0.047c0.846,0.018,1.691,0.034,2.326,0.046
		c0.634,0.022,1.057,0.055,1.057,0.055l0.1,0.007v0.058L15.211,15.684z"/>
</g>
</svg>
