<?xml version="1.0" encoding="utf-8"?>
<!-- Generator: Adobe Illustrator 16.0.0, SVG Export Plug-In . SVG Version: 6.00 Build 0)  -->
<!DOCTYPE svg PUBLIC "-//W3C//DTD SVG 1.1//EN" "http://www.w3.org/Graphics/SVG/1.1/DTD/svg11.dtd">
<svg version="1.1" id="Layer_1" xmlns="http://www.w3.org/2000/svg" xmlns:xlink="http://www.w3.org/1999/xlink" x="0px" y="0px"
  width="24px" height="24px" viewBox="0 0 24 24" style="enable-background:new 0 0 24 24;" xml:space="preserve">
  <path style="fill:none;" d="M0,0h24v24H0V0z"/>
  <path style="fill:#E7F500;" d="M6.76,4.84l-1.8-1.79L3.55,4.46l1.79,1.79L6.76,4.84z M4,10.5H1v2h3V10.5z M13,0.55h-2V3.5h2V0.55z
      M20.45,4.46l-1.41-1.41l-1.79,1.79l1.41,1.41L20.45,4.46z M17.24,18.16l1.789,1.8l1.41-1.41l-1.799-1.79L17.24,18.16z M20,10.5v2h3
      v-2H20z M12,5.5c-3.31,0-6,2.69-6,6c0,3.311,2.69,6,6,6c3.311,0,6-2.689,6-6C18,8.19,15.311,5.5,12,5.5z M11,22.45h2V19.5h-2V22.45z
      M3.55,18.54l1.41,1.41l1.79-1.8l-1.41-1.41L3.55,18.54z">
      <animateTransform attributeType="xml"
        attributeName="transform"
        type="rotate"
        from="0 180 50"
        to="360 180 50"
        dur="8s"
        repeatCount="indefinite"/>
    </path>
</svg>
